# xmcd
#
# Track frame offsets:
#	150
#	14217
#	32885
#	51212
#	73170
#	88927
#	104422
#	119490
#	135967
#	151200
#	166952
#	182370
#	198222
#	213030
#	228962
#	242240
#	258080
#	272555
#	290420
#	307322
#
# Disc length: 4310
#
# Revision: 7
# Processed by: cddbd v1.5.1PL0 Copyright (c) Steve Scherf et al.
# Submitted via: audiograbber 1.81.03
# Normalized: r6:DSETVAR2
#
DISCID=1e10d414
DTITLE=Various Artist - Absolute New Country 4
DYEAR=1996
DGENRE=Country
TTITLE0=Clay Walker - Hand Me Down Heart
TTITLE1=Dwight Yoakam - Heart Of Stone
TTITLE2=Curtis Day - My Baby's Cookin'
TTITLE3=Wynonna - To Be Loved By You
TTITLE4=Sawyer Brown - (This Thing Called) Wantin' And Havin' It All
TTITLE5=Terri Clark - Catch 22
TTITLE6=Lee Roy Parnell - We All Get Locky Sometimes
TTITLE7=Alan Jackson - Here In The Real World
TTITLE8=Sammy Kershaw - Third Rate Romance
TTITLE9=Lisa Brokop - I Know To Much
TTITLE10=Bryan White - Eugene You Genius
TTITLE11=Kathy Mattea - Walking Away A Winner
TTITLE12=Aaron Tippin - A Real Nice Problem To Have
TTITLE13=Doug Supernaw - We're All Here
TTITLE14=Tim McGraw - Down On The Farm
TTITLE15=Linda Davis - Some Things Are Meant To Be
TTITLE16=John Michael Montgomery - Cowboy Love
TTITLE17=Kim Richey - Those Words We Said
TTITLE18=Philip Claypool - Swingin' on My Baby's Chain
TTITLE19=Pam Tillis - You Can't Have A Good Time Without Me
EXTD=
EXTT0=
EXTT1=
EXTT2=
EXTT3=
EXTT4=
EXTT5=
EXTT6=
EXTT7=
EXTT8=
EXTT9=
EXTT10=
EXTT11=
EXTT12=
EXTT13=
EXTT14=
EXTT15=
EXTT16=
EXTT17=
EXTT18=
EXTT19=
PLAYORDER=
